<svg id="Group_315" data-name="Group 315" xmlns="http://www.w3.org/2000/svg" width="239.401" height="32.516" viewBox="0 0 239.401 32.516">
  <path id="Path_232" data-name="Path 232" d="M232.439,190.2a6.2,6.2,0,0,0-3.17.929,5.538,5.538,0,0,0-2.16,3.371c-.359,1.267-.286,2.177.229,2.721a2.755,2.755,0,0,0,2.1.811l7.058-.045a6.45,6.45,0,0,0,.794.045,7.348,7.348,0,0,1,.83.047,7.809,7.809,0,0,1,2.281.518,3.207,3.207,0,0,1,1.664,1.567,5,5,0,0,1,.577,2.4,13.117,13.117,0,0,1-.31,2.9c-.061.3-.13.593-.2.879s-.151.581-.239.884q-1.7,5.662-4.64,7.673a12.061,12.061,0,0,1-6.994,2.021H216.106l1.671-5.8h13.315a6.623,6.623,0,0,0,3.253-.723c1.007-.508,1.685-1.671,2.045-3.486.293-1.414.135-2.3-.473-2.621a5.218,5.218,0,0,0-2.347-.546l-6.252-.047c-2.614.031-4.479-.634-5.6-2.014s-1.151-3.848-.09-7.446q1.7-5.659,4.675-7.72a12,12,0,0,1,7.018-2.061l13.922-.045-1.666,5.8Z" transform="translate(-216.106 -184.404)" fill="#373737"/>
  <path id="Path_233" data-name="Path 233" d="M238.828,193.236a31.335,31.335,0,0,0-3.387,7.469c-.142.485-.277.979-.425,1.475s-.277,1-.4,1.515a20.23,20.23,0,0,0-.433,3.1,6.269,6.269,0,0,0,.385,2.692,2.353,2.353,0,0,0,1.515,1.515,7.894,7.894,0,0,0,2.186.293h.317l8.751-.043-1.633,5.661h-8.98a15.191,15.191,0,0,1-3.995-.5,5.38,5.38,0,0,1-3.085-2.312,9.114,9.114,0,0,1-1.4-5.406,28.041,28.041,0,0,1,.974-6.543q.174-.723.385-1.4c.144-.454.291-.9.447-1.357q2.61-7.7,6.522-11.322a13.678,13.678,0,0,1,9.654-3.619l8.855-.05-1.6,5.574h-8.739a6.693,6.693,0,0,0-5.9,3.257" transform="translate(-199.564 -184.405)" fill="#373737"/>
  <path id="Path_234" data-name="Path 234" d="M259.754,184.406a6.012,6.012,0,0,0,.742.045,6.086,6.086,0,0,1,.742.047,8.791,8.791,0,0,1,2.671.586,3.586,3.586,0,0,1,1.905,1.858,6.047,6.047,0,0,1,.633,2.758,14.408,14.408,0,0,1-.359,3.262c-.057.21-.116.423-.168.634s-.106.421-.163.636a16.371,16.371,0,0,1-2.905,5.862,9.311,9.311,0,0,1-4.836,3.286l2.4,13.539h-5.987l-1.882-12.774h-6.266L242.6,216.919h-5.318l9.375-32.513Zm-2.94,5.8H250.3l-2.364,8.2h6.519a.171.171,0,0,0,.128.043h.142a8.378,8.378,0,0,0,3.267-.652c1.052-.435,1.837-1.6,2.359-3.463q.833-2.9-.461-3.491a7.39,7.39,0,0,0-3.085-.586Z" transform="translate(-187.234 -184.404)" fill="#373737"/>
  <path id="Path_235" data-name="Path 235" d="M272.684,184.406l1.4,32.508H268.17l-.1-7.739H257.091l-4.486,7.739h-5.6l20.044-32.508Zm-12.2,18.971h7.533l-.234-12.5Z" transform="translate(-173.965 -184.404)" fill="#373737"/>
  <path id="Path_236" data-name="Path 236" d="M280.136,184.406a.068.068,0,0,0,.071.045h1.425a9.717,9.717,0,0,1,1.319.09,9.878,9.878,0,0,1,2.25.435,4.641,4.641,0,0,1,1.877,1.106,5.347,5.347,0,0,1,1.551,3.85,16.949,16.949,0,0,1-.645,5.113,18.8,18.8,0,0,1-2.016,4.711,12.608,12.608,0,0,1-3.347,3.761,9.469,9.469,0,0,1-3.371,1.6,19.893,19.893,0,0,1-3.323.475h-1.692l-6.432-.047-3.274,11.37h-5.321l9.375-32.513Zm-1.742,5.8h-6.162l-2.768,9.6h6.477a7.161,7.161,0,0,0,3.631-.974,6.045,6.045,0,0,0,2.494-3.782q.975-3.124-.355-3.959a6.15,6.15,0,0,0-3.331-.839Z" transform="translate(-157.328 -184.404)" fill="#373737"/>
  <path id="Path_237" data-name="Path 237" d="M282.5,192.079a13.907,13.907,0,0,0-3.234,5.595l14.736-.045-1.636,5.659H277.616a18.967,18.967,0,0,0-.657,3.3,6.084,6.084,0,0,0,.381,2.9,2.263,2.263,0,0,0,1.482,1.513,7.692,7.692,0,0,0,2.184.3h.319l8.748-.05-1.633,5.668h-8.977a15.249,15.249,0,0,1-4-.5,5.411,5.411,0,0,1-3.082-2.312,9.121,9.121,0,0,1-1.4-5.408,28.026,28.026,0,0,1,.974-6.543c.111-.487.243-.95.385-1.4s.288-.905.447-1.359q2.6-7.69,6.519-11.322a13.673,13.673,0,0,1,9.651-3.619l8.855-.045-1.633,5.661h-8.732a6.969,6.969,0,0,0-4.945,2.012" transform="translate(-141.273 -184.404)" fill="#373737"/>
  <path id="Path_238" data-name="Path 238" d="M302.811,184.406a6.066,6.066,0,0,0,.742.045,6.027,6.027,0,0,1,.742.047,8.823,8.823,0,0,1,2.671.586,3.6,3.6,0,0,1,1.908,1.858,6.109,6.109,0,0,1,.633,2.758,14.282,14.282,0,0,1-.364,3.262c-.057.21-.113.423-.165.634s-.1.421-.161.636a16.38,16.38,0,0,1-2.91,5.862,9.312,9.312,0,0,1-4.836,3.286l2.4,13.539h-5.987L295.6,204.146h-6.266l-3.68,12.774h-5.323l9.375-32.513Zm-2.941,5.8h-6.519l-2.361,8.2h6.517a.177.177,0,0,0,.13.043h.142a8.37,8.37,0,0,0,3.267-.652c1.052-.435,1.839-1.6,2.357-3.463q.833-2.9-.456-3.491a7.413,7.413,0,0,0-3.089-.586Z" transform="translate(-128.519 -184.404)" fill="#373737"/>
  <path id="Path_239" data-name="Path 239" d="M291.521,216.916l9.375-32.511h5.566l-9.375,32.511Z" transform="translate(-113.26 -184.404)" fill="#373737"/>
  <path id="Path_240" data-name="Path 240" d="M298.263,190.085l1.632-5.66h21.832l-1.632,5.66h-8.2l-7.74,26.8h-5.486l7.729-26.8Z" transform="translate(-104.066 -184.378)" fill="#373737"/>
  <path id="Path_241" data-name="Path 241" d="M317.56,192.079a13.907,13.907,0,0,0-3.234,5.595l14.733-.045-1.633,5.659H312.672a19.185,19.185,0,0,0-.657,3.3,6.113,6.113,0,0,0,.381,2.9,2.268,2.268,0,0,0,1.482,1.513,7.739,7.739,0,0,0,2.189.3h.317l8.746-.05-1.629,5.668h-8.98a15.223,15.223,0,0,1-4-.5,5.394,5.394,0,0,1-3.085-2.312,9.139,9.139,0,0,1-1.4-5.408,28.273,28.273,0,0,1,.974-6.543c.116-.487.246-.95.385-1.4s.3-.905.449-1.359q2.606-7.69,6.519-11.322a13.683,13.683,0,0,1,9.653-3.619l8.852-.045-1.633,5.661H322.51a6.976,6.976,0,0,0-4.95,2.012" transform="translate(-93.469 -184.404)" fill="#373737"/>
</svg>
